<svg xmlns="http://www.w3.org/2000/svg" width="1em" height="1em" viewBox="0 0 24 24"><title xmlns="">music-line</title><g fill="none"><path d="m12.593 23.258l-.011.002l-.071.035l-.02.004l-.014-.004l-.071-.035q-.016-.005-.024.005l-.004.01l-.017.428l.005.02l.01.013l.104.074l.015.004l.012-.004l.104-.074l.012-.016l.004-.017l-.017-.427q-.004-.016-.017-.018m.265-.113l-.013.002l-.185.093l-.01.01l-.003.011l.018.43l.005.012l.008.007l.201.093q.019.005.029-.008l.004-.014l-.034-.614q-.005-.018-.02-.022m-.715.002a.02.02 0 0 0-.027.006l-.006.014l-.034.614q.001.018.017.024l.015-.002l.201-.093l.01-.008l.004-.011l.017-.43l-.003-.012l-.01-.01z"/><path fill="currentColor" d="M21 5.18V17a4 4 0 1 1-2-3.465V9.181L9 10.847V18q0 .09-.015.174A3.5 3.5 0 1 1 7 15.337v-8.49a2 2 0 0 1 1.671-1.973l10-1.666A2 2 0 0 1 21 5.18M5.5 17a1.5 1.5 0 1 0 0 3a1.5 1.5 0 0 0 0-3M17 15a2 2 0 1 0 0 4a2 2 0 0 0 0-4m2-9.82L9 6.847V8.82l10-1.667z"/></g></svg>